<svg aria-hidden="true" style="position: absolute; width: 0; height: 0; overflow: hidden;" version="1.1" xmlns="http://www.w3.org/2000/svg" xmlns:xlink="http://www.w3.org/1999/xlink">
<defs>
<symbol id="calendar" viewBox="0 0 32 32">
<path d="M22.667 4h5.333c0.354 0 0.693 0.14 0.943 0.391s0.391 0.589 0.391 0.943v21.333c0 0.354-0.14 0.693-0.391 0.943s-0.589 0.391-0.943 0.391h-24c-0.354 0-0.693-0.14-0.943-0.391s-0.39-0.589-0.39-0.943v-21.333c0-0.354 0.14-0.693 0.39-0.943s0.589-0.391 0.943-0.391h5.333v-2.667h2.667v2.667h8v-2.667h2.667v2.667zM26.667 14.667h-21.333v10.667h21.333v-10.667zM20 6.667h-8v2.667h-2.667v-2.667h-4v5.333h21.333v-5.333h-4v2.667h-2.667v-2.667zM8 17.333h2.667v2.667h-2.667v-2.667zM14.667 17.333h2.667v2.667h-2.667v-2.667zM21.333 17.333h2.667v2.667h-2.667v-2.667z"></path>
</symbol>
<symbol id="down-arrow" viewBox="0 0 32 32">
<path d="M3.76 9.143l-3.76 3.479 16 14.806 16-14.806-3.76-3.479-12.24 11.302-12.24-11.302z"></path>
</symbol>
<symbol id="heart" viewBox="0 0 32 32">
<path stroke-linejoin="round" stroke-linecap="round" stroke-miterlimit="4" stroke-width="2" d="M9.333 4c-3.681 0-6.667 2.955-6.667 6.6 0 2.943 1.167 9.927 12.651 16.987 0.206 0.125 0.442 0.191 0.683 0.191s0.477-0.066 0.683-0.191c11.484-7.060 12.651-14.044 12.651-16.987 0-3.645-2.985-6.6-6.667-6.6s-6.667 4-6.667 4-2.985-4-6.667-4z"></path>
</symbol>
<symbol id="search" viewBox="0 0 32 32">
<path d="M13.333 23.6c2.367-0 4.665-0.753 6.529-2.138l5.861 5.568 1.885-1.791-5.861-5.568c1.459-1.771 2.251-3.955 2.252-6.204 0-5.587-4.785-10.133-10.667-10.133s-10.667 4.546-10.667 10.133c0 5.587 4.785 10.133 10.667 10.133zM13.333 5.867c4.412 0 8 3.409 8 7.6s-3.588 7.6-8 7.6c-4.412 0-8-3.409-8-7.6s3.588-7.6 8-7.6z"></path>
</symbol>
<symbol id="up-arrow" viewBox="0 0 32 32">
<path d="M3.76 25.143l-3.76-3.479 16-14.806 16 14.806-3.76 3.479-12.24-11.302-12.24 11.302z"></path>
</symbol>
<symbol id="burger" viewBox="0 0 32 32">
<path stroke-linejoin="round" stroke-linecap="round" stroke-miterlimit="4" stroke-width="2.6667" d="M4 16h24"></path>
<path stroke-linejoin="round" stroke-linecap="round" stroke-miterlimit="4" stroke-width="2.6667" d="M4 8h24"></path>
<path stroke-linejoin="round" stroke-linecap="round" stroke-miterlimit="4" stroke-width="2.6667" d="M4 24h24"></path>
</symbol>
<symbol id="close" viewBox="0 0 28 32">
<path  stroke-linejoin="round" stroke-linecap="round" stroke-miterlimit="4" stroke-width="2.3704" d="M21.333 7.111l-14.222 14.222"></path>
<path  stroke-linejoin="round" stroke-linecap="round" stroke-miterlimit="4" stroke-width="2.3704" d="M7.111 7.111l14.222 14.222"></path>
</symbol>
<symbol id="sun" viewBox="0 0 32 32">
<path stroke-linejoin="round" stroke-linecap="round" stroke-miterlimit="4" stroke-width="2.2857" d="M16 1.778v2.586M16 27.636v2.586M5.941 5.941l1.836 1.836M24.223 24.223l1.836 1.836M1.778 16h2.586M27.636 16h2.586M5.941 26.059l1.836-1.836M24.223 7.777l1.836-1.836M22.465 16c0 3.57-2.894 6.465-6.465 6.465s-6.465-2.894-6.465-6.465c0-3.57 2.894-6.465 6.465-6.465s6.465 2.894 6.465 6.465z"></path>
</symbol>
<symbol id="moon" viewBox="0 0 32 32">
<path stroke-linejoin="round" stroke-linecap="round" stroke-miterlimit="4" stroke-width="2.2857" d="M28 17.053c-0.21 2.27-1.061 4.433-2.456 6.236s-3.273 3.172-5.417 3.946c-2.144 0.774-4.464 0.922-6.688 0.426s-4.262-1.615-5.874-3.227c-1.612-1.612-2.731-3.649-3.227-5.874s-0.348-4.544 0.426-6.688 2.143-4.023 3.946-5.417c1.803-1.394 3.966-2.246 6.236-2.456-1.329 1.798-1.968 4.013-1.802 6.242s1.127 4.325 2.708 5.906c1.581 1.581 3.676 2.542 5.906 2.708s4.444-0.473 6.242-1.802v0z"></path>
</symbol>
<symbol id="home" viewBox="0 0 32 32">
<path stroke-linejoin="round" stroke-linecap="round" stroke-miterlimit="4" stroke-width="1.7778" d="M4 12l12-9.333 12 9.333v14.667c0 0.707-0.281 1.386-0.781 1.886s-1.178 0.781-1.886 0.781h-18.667c-0.707 0-1.386-0.281-1.886-0.781s-0.781-1.178-0.781-1.886v-14.667z"></path>
<path stroke-linejoin="round" stroke-linecap="round" stroke-miterlimit="4" stroke-width="1.7778" d="M12 29.333v-13.333h8v13.333"></path>
</symbol>
<symbol id="favorite-heart" viewBox="0 0 32 32">
<path stroke-linejoin="round" stroke-linecap="round" stroke-miterlimit="4" stroke-width="1.7778" d="M27.787 6.146c-0.681-0.681-1.49-1.222-2.38-1.591s-1.844-0.559-2.807-0.559c-0.963 0-1.917 0.19-2.807 0.559s-1.698 0.909-2.38 1.591l-1.413 1.413-1.413-1.413c-1.376-1.376-3.241-2.148-5.187-2.148s-3.811 0.773-5.187 2.148c-1.376 1.376-2.148 3.241-2.148 5.187s0.773 3.811 2.148 5.187l11.787 11.787 11.787-11.787c0.681-0.681 1.222-1.49 1.591-2.38s0.559-1.844 0.559-2.807c0-0.963-0.19-1.917-0.559-2.807s-0.909-1.699-1.591-2.38v0z"></path>
</symbol>
<symbol id="book" viewBox="0 0 32 32">
<path stroke-linejoin="round" stroke-linecap="round" stroke-miterlimit="4" stroke-width="1.7778" d="M2.667 4h8c1.415 0 2.771 0.562 3.771 1.562s1.562 2.357 1.562 3.771v18.667c0-1.061-0.421-2.078-1.172-2.828s-1.768-1.172-2.828-1.172h-9.333v-20z"></path>
<path stroke-linejoin="round" stroke-linecap="round" stroke-miterlimit="4" stroke-width="1.7778" d="M29.333 4h-8c-1.414 0-2.771 0.562-3.771 1.562s-1.562 2.357-1.562 3.771v18.667c0-1.061 0.421-2.078 1.172-2.828s1.768-1.172 2.828-1.172h9.333v-20z"></path>
</symbol>
</defs>
</svg>
